# Blender 3.4.1
# www.blender.org
mtllib trianglearrow.mtl
o Cube
v -2.388914 0.000000 -0.000000
v -0.388914 1.000000 0.000000
v -0.388914 -1.000000 -0.000000
v -0.388914 -0.461119 -0.000000
v -0.388914 0.461118 0.000000
v 1.972284 -0.461119 -0.000000
v 1.972284 0.461119 0.000000
vn -0.0000 -0.0000 -1.0000
vt 0.625000 0.500000
vt 0.875000 0.500000
vt 0.875000 0.750000
vt 0.875000 0.666667
vt 0.875000 0.583333
vt 0.875000 0.666667
vt 0.875000 0.583333
s 0
usemtl Material
f 1/1/1 2/2/1 5/5/1 4/4/1 3/3/1
f 4/4/1 5/5/1 7/7/1 6/6/1
